<svg xmlns="http://www.w3.org/2000/svg" viewBox="0 0 789 131.24"><g id="Слой_2" data-name="Слой 2"><g id="Слой_1-2" data-name="Слой 1"><path d="M55,110.24c-12.86-3.84-21.83-20.15-23.72-31H68v-13H30.56c.36-8.81,2.83-20.06,12.44-28,13.27-11,38-1,38-1l8-11c-5.78-4.34-20.63-11.65-36-10-26.26,2.82-43.89,22.94-47.36,50H0v13H5.4c1.77,9.23,10,34.54,33.6,42,19,6,45-1,45-1l-4-11S67.23,113.9,55,110.24Z"/><path d="M437,107.24c-12.86-3.84-21.83-20.15-23.72-31H450v-13H412.56c.36-8.81,2.83-20.06,12.44-28,13.27-11,38-1,38-1l8-11c-5.78-4.34-20.63-11.65-36-10-26.26,2.82-43.89,22.94-47.36,50H382v13h5.4c1.77,9.23,10,34.54,33.6,42,19,6,45-1,45-1l-4-11S449.23,110.9,437,107.24Z"/><path d="M172,40.24l-1-31s-4.39,5.84-9,7c-7.13,1.8-10.79-2.22-21-6-10.75-4-25.46.88-33,10-14.24,17.23-1.83,48.29,13,54,7.73,3,12.57-2.29,20,2,8.27,4.78,15.5,16.38,10,27-3.77,7.28-12.73,12.63-19,13-13.45.8-22.5-11.9-24-14a43.9,43.9,0,0,1-6-11v40a28.58,28.58,0,0,1,12-8c7.92-2.58,12.82,2.45,22,4,12.54,2.12,29.76-2.8,37-15s1.65-26.69,0-31c-1.71-4.48-6.16-16.09-17-21-14-6.32-15.43-.1-25-7-6.43-4.64-5.13-8.06-2-16,3.3-8.35,2.55-10.61,10-11C157.44,25.28,172,40.24,172,40.24Z"/><path d="M524,3.24c-13-1-25.46.88-33,10-14.24,17.23-1.83,48.29,13,54,7.73,3,12.57-2.29,20,2,8.27,4.78,15.5,16.38,10,27-3.77,7.28-19.73.63-26,1l-24-7-2,23,37,7c12.54,2.12,29.76-2.8,37-15s1.65-26.69,0-31c-1.71-4.48-6.16-16.09-17-21-14-6.32-12,0-25-7-6.2-3.34-3.53-17.64,2-22,14.5-11.42,37,13,37,13l-2-24Z"/><path d="M614,.24c-13-1-25.46.88-33,10-14.24,17.23-1.83,48.29,13,54,7.73,3,12.57-2.29,20,2,8.27,4.78,15.5,16.38,10,27-3.77,7.28-19.73.63-26,1l-24-7-2,23,37,7c12.54,2.12,29.76-2.8,37-15s1.65-26.69,0-31c-1.71-4.48-6.16-16.09-17-21-14-6.32-12,0-25-7-6.2-3.34-3.53-17.64,2-22,14.5-11.42,37,13,37,13l-2-24Z"/><path d="M262,23.24c-16.7-18.73-74-7-74-7l4,104h24v-45s24.62,4.65,40-1c9.42-3.46,9.82-11.32,12-22C271.11,37,264.1,25.59,262,23.24Zm-25,39c-4.84,1.71-20.52,0-20.52,0l-2.48-32s20.13-3.5,25.43,0c4.55,3,9.94,14.74,8.57,20C247,54.18,240.84,60.88,237,62.24Z"/><rect x="659" y="5.24" width="25" height="107"/><rect x="706" y="3.24" width="28" height="114"/><rect x="706" y="3.24" width="83" height="28"/><rect x="720" y="46.24" width="61" height="16"/><path d="M348,77.24s8-7.67,9.87-10.81c2.43-4.08,5.47-13.25,6.26-17.93.83-4.88,1.88-15.23,0-19.81C361.55,22.37,345,9.24,345,9.24l-58.09-.4L290,117.63l23-.39v-37l8-1,21,35,32,1Zm-7-23H308v-26h33Z"/></g></g></svg>